<svg version="1.1" id="Layer_1" xmlns="http://www.w3.org/2000/svg" xmlns:xlink="http://www.w3.org/1999/xlink" x="0px" y="0px"
	 width="100%" viewBox="0 0 2000 2000" enable-background="new 0 0 2000 2000" xml:space="preserve">
<path fill="#000000" opacity="1.000000" stroke="none" 
	d="
M1307.000000,2001.000000 
	C871.333313,2001.000000 436.166656,2001.000000 1.000000,2001.000000 
	C1.000000,1334.333374 1.000000,667.666687 1.000000,1.000000 
	C667.666687,1.000000 1334.333374,1.000000 2001.000000,1.000000 
	C2001.000000,667.666687 2001.000000,1334.333374 2001.000000,2001.000000 
	C1769.833374,2001.000000 1538.666626,2001.000000 1307.000000,2001.000000 
M1615.031250,369.105408 
	C1577.867798,369.102570 1540.704224,369.137787 1503.541138,369.030518 
	C1500.276489,369.021088 1498.052368,369.949341 1495.806274,372.379395 
	C1425.727539,448.196106 1355.565063,523.935547 1285.425537,599.696289 
	C1216.743774,673.882568 1148.071289,748.077576 1079.401733,822.275146 
	C1074.885376,827.155029 1074.906494,827.185425 1070.904541,821.837158 
	C1021.417358,755.700806 971.928833,689.565430 922.447876,623.424316 
	C893.842834,585.187927 865.248840,546.943176 836.653992,508.699097 
	C802.942261,463.611603 769.202942,418.544556 735.595215,373.379639 
	C733.276794,370.263916 730.959656,369.000793 727.010803,369.004181 
	C596.687134,369.116211 466.363403,369.096344 336.039673,369.102692 
	C334.376007,369.102753 332.712372,369.189941 330.343353,369.122040 
	C330.534698,369.798645 330.726044,370.475250 331.152069,371.781158 
	C370.521088,424.436493 409.886383,477.094543 449.259918,529.746521 
	C523.136780,628.537842 597.016235,727.327209 670.899170,826.114075 
	C695.326477,858.775146 719.771057,891.423340 744.201721,924.081909 
	C778.830811,970.373596 813.398499,1016.711609 848.178467,1062.889648 
	C851.214111,1066.920166 851.084290,1069.178711 847.663757,1072.859131 
	C790.399292,1134.476440 733.287842,1196.235718 676.141846,1257.963135 
	C572.169922,1370.270508 468.190582,1482.571045 364.235107,1594.893555 
	C352.034088,1608.076538 339.962860,1621.379395 327.205750,1634.954712 
	C327.469727,1635.311768 327.733734,1635.668823 328.910706,1636.256348 
	C366.073761,1636.265869 403.237152,1636.335693 440.399170,1636.145630 
	C442.817932,1636.133301 445.889099,1634.740845 447.544434,1632.957764 
	C523.448853,1551.195923 599.226379,1469.316162 675.024719,1387.455811 
	C750.614563,1305.820801 826.209839,1224.190918 901.813477,1142.568726 
	C902.770386,1141.535645 903.867493,1140.632568 905.130798,1139.452271 
	C906.512939,1141.201416 907.558716,1142.463501 908.539307,1143.774414 
	C984.743469,1245.642090 1060.949341,1347.508423 1137.139404,1449.386719 
	C1182.825806,1510.476440 1228.509277,1571.568359 1274.090454,1632.736450 
	C1276.286987,1635.684326 1278.661499,1636.348633 1282.072510,1636.346680 
	C1412.392822,1636.272461 1542.713013,1636.285034 1673.033325,1636.272949 
	C1674.689453,1636.272705 1676.345703,1636.105713 1678.707397,1636.146118 
	C1678.473389,1635.426270 1678.239380,1634.706299 1677.820190,1633.329834 
	C1676.834473,1631.992188 1675.857056,1630.648438 1674.861816,1629.317871 
	C1607.368530,1539.083130 1539.874634,1448.848877 1472.378906,1358.615845 
	C1413.559570,1279.981812 1354.737427,1201.349609 1295.917480,1122.715942 
	C1254.714111,1067.633179 1213.510864,1012.550354 1172.310181,957.465515 
	C1157.478882,937.636230 1142.655273,917.801208 1127.957520,898.141724 
	C1137.558960,887.785278 1146.942383,877.676697 1156.312134,867.555420 
	C1229.846558,788.123657 1303.377686,708.688843 1376.911133,629.256348 
	C1441.830322,559.129150 1506.764282,489.015747 1571.661011,418.867950 
	C1586.574097,402.748230 1601.362305,386.512909 1616.747070,370.050293 
	C1616.482788,369.779419 1616.218628,369.508575 1615.031250,369.105408 
z"/>
<path fill="#FEFEFE" opacity="1.000000" stroke="none" 
	d="
M1678.001953,1636.016602 
	C1676.345703,1636.105713 1674.689453,1636.272705 1673.033325,1636.272949 
	C1542.713013,1636.285034 1412.392822,1636.272461 1282.072510,1636.346680 
	C1278.661499,1636.348633 1276.286987,1635.684326 1274.090454,1632.736450 
	C1228.509277,1571.568359 1182.825806,1510.476440 1137.139404,1449.386719 
	C1060.949341,1347.508423 984.743469,1245.642090 908.539307,1143.774414 
	C907.558716,1142.463501 906.512939,1141.201416 905.130798,1139.452271 
	C903.867493,1140.632568 902.770386,1141.535645 901.813477,1142.568726 
	C826.209839,1224.190918 750.614563,1305.820801 675.024719,1387.455811 
	C599.226379,1469.316162 523.448853,1551.195923 447.544434,1632.957764 
	C445.889099,1634.740845 442.817932,1636.133301 440.399170,1636.145630 
	C403.237152,1636.335693 366.073761,1636.265869 328.435120,1635.788574 
	C327.916809,1635.089355 327.874084,1634.857910 327.831421,1634.626587 
	C339.962860,1621.379395 352.034088,1608.076538 364.235107,1594.893555 
	C468.190582,1482.571045 572.169922,1370.270508 676.141846,1257.963135 
	C733.287842,1196.235718 790.399292,1134.476440 847.663757,1072.859131 
	C851.084290,1069.178711 851.214111,1066.920166 848.178467,1062.889648 
	C813.398499,1016.711609 778.830811,970.373596 744.201721,924.081909 
	C719.771057,891.423340 695.326477,858.775146 670.899170,826.114075 
	C597.016235,727.327209 523.136780,628.537842 449.259918,529.746521 
	C409.886383,477.094543 370.521088,424.436493 331.070862,371.148224 
	C331.009338,370.089020 331.029022,369.662720 331.048706,369.236450 
	C332.712372,369.189941 334.376007,369.102753 336.039673,369.102692 
	C466.363403,369.096344 596.687134,369.116211 727.010803,369.004181 
	C730.959656,369.000793 733.276794,370.263916 735.595215,373.379639 
	C769.202942,418.544556 802.942261,463.611603 836.653992,508.699097 
	C865.248840,546.943176 893.842834,585.187927 922.447876,623.424316 
	C971.928833,689.565430 1021.417358,755.700806 1070.904541,821.837158 
	C1074.906494,827.185425 1074.885376,827.155029 1079.401733,822.275146 
	C1148.071289,748.077576 1216.743774,673.882568 1285.425537,599.696289 
	C1355.565063,523.935547 1425.727539,448.196106 1495.806274,372.379395 
	C1498.052368,369.949341 1500.276489,369.021088 1503.541138,369.030518 
	C1540.704224,369.137787 1577.867798,369.102570 1615.510254,369.455505 
	C1616.062012,369.980652 1616.135010,370.155731 1616.208008,370.330811 
	C1601.362305,386.512909 1586.574097,402.748230 1571.661011,418.867950 
	C1506.764282,489.015747 1441.830322,559.129150 1376.911133,629.256348 
	C1303.377686,708.688843 1229.846558,788.123657 1156.312134,867.555420 
	C1146.942383,877.676697 1137.558960,887.785278 1127.957520,898.141724 
	C1142.655273,917.801208 1157.478882,937.636230 1172.310181,957.465515 
	C1213.510864,1012.550354 1254.714111,1067.633179 1295.917480,1122.715942 
	C1354.737427,1201.349609 1413.559570,1279.981812 1472.378906,1358.615845 
	C1539.874634,1448.848877 1607.368530,1539.083130 1674.861816,1629.317871 
	C1675.857056,1630.648438 1676.834473,1631.992188 1677.891602,1633.996094 
	C1677.975952,1635.113892 1677.989014,1635.565186 1678.001953,1636.016602 
M505.271210,456.884552 
	C505.503601,457.613922 505.735962,458.343323 506.167572,459.717743 
	C557.727051,528.650574 609.287537,597.582764 660.845764,666.516541 
	C779.550354,825.225159 898.251526,983.936340 1016.958374,1142.643311 
	C1093.534912,1245.023315 1170.119995,1347.396851 1246.698730,1449.775269 
	C1270.504272,1481.601074 1294.335571,1513.407837 1318.041382,1545.307739 
	C1320.059692,1548.023804 1322.172974,1548.947510 1325.493164,1548.942017 
	C1383.643799,1548.844604 1441.794434,1548.872681 1499.945190,1548.864868 
	C1501.273682,1548.864624 1502.602051,1548.761719 1504.444946,1548.839111 
	C1504.361938,1548.470947 1504.278931,1548.102783 1504.007202,1547.086548 
	C1442.878540,1465.325928 1381.758057,1383.559204 1320.619141,1301.806274 
	C1217.064331,1163.336426 1113.504517,1024.870239 1009.934631,886.411621 
	C903.723755,744.422485 797.489502,602.450867 691.345215,460.412048 
	C689.322815,457.705750 687.318848,456.692017 683.962891,456.698090 
	C626.134277,456.802979 568.305420,456.771698 510.476593,456.783661 
	C508.985077,456.783966 507.493591,456.934692 505.271210,456.884552 
z"/>
<path fill="#D5D5D5" opacity="1.000000" stroke="none" 
	d="
M330.696045,369.179260 
	C331.029022,369.662720 331.009338,370.089020 330.953491,370.833557 
	C330.726044,370.475250 330.534698,369.798645 330.696045,369.179260 
z"/>
<path fill="#EDEDED" opacity="1.000000" stroke="none" 
	d="
M1678.354736,1636.081299 
	C1677.989014,1635.565186 1677.975952,1635.113892 1677.984253,1634.324463 
	C1678.239380,1634.706299 1678.473389,1635.426270 1678.354736,1636.081299 
z"/>
<path fill="#D4D4D4" opacity="1.000000" stroke="none" 
	d="
M1616.477539,370.190552 
	C1616.135010,370.155731 1616.062012,369.980652 1615.971802,369.521667 
	C1616.218628,369.508575 1616.482788,369.779419 1616.477539,370.190552 
z"/>
<path fill="#EDEDED" opacity="1.000000" stroke="none" 
	d="
M327.518555,1634.790649 
	C327.874084,1634.857910 327.916809,1635.089355 327.978638,1635.673340 
	C327.733734,1635.668823 327.469727,1635.311768 327.518555,1634.790649 
z"/>
<path fill="#010101" opacity="1.000000" stroke="none" 
	d="
M1503.930542,1548.706787 
	C1502.602051,1548.761719 1501.273682,1548.864624 1499.945190,1548.864868 
	C1441.794434,1548.872681 1383.643799,1548.844604 1325.493164,1548.942017 
	C1322.172974,1548.947510 1320.059692,1548.023804 1318.041382,1545.307739 
	C1294.335571,1513.407837 1270.504272,1481.601074 1246.698730,1449.775269 
	C1170.119995,1347.396851 1093.534912,1245.023315 1016.958374,1142.643311 
	C898.251526,983.936340 779.550354,825.225159 660.845764,666.516541 
	C609.287537,597.582764 557.727051,528.650574 506.095123,459.052948 
	C506.015808,457.930511 506.008942,457.472900 506.002075,457.015259 
	C507.493591,456.934692 508.985077,456.783966 510.476593,456.783661 
	C568.305420,456.771698 626.134277,456.802979 683.962891,456.698090 
	C687.318848,456.692017 689.322815,457.705750 691.345215,460.412048 
	C797.489502,602.450867 903.723755,744.422485 1009.934631,886.411621 
	C1113.504517,1024.870239 1217.064331,1163.336426 1320.619141,1301.806274 
	C1381.758057,1383.559204 1442.878540,1465.325928 1503.967773,1547.635254 
	C1503.929199,1548.358276 1503.929932,1548.532593 1503.930542,1548.706787 
z"/>
<path fill="#161616" opacity="1.000000" stroke="none" 
	d="
M505.636658,456.949890 
	C506.008942,457.472900 506.015808,457.930511 505.995514,458.730408 
	C505.735962,458.343323 505.503601,457.613922 505.636658,456.949890 
z"/>
<path fill="#353535" opacity="1.000000" stroke="none" 
	d="
M1504.187744,1548.772949 
	C1503.929932,1548.532593 1503.929199,1548.358276 1504.062134,1547.959229 
	C1504.278931,1548.102783 1504.361938,1548.470947 1504.187744,1548.772949 
z"/>
</svg>